<svg xmlns="http://www.w3.org/2000/svg" viewBox="0 0 585.41 782.74"><defs><style>.cls-1{fill:#754c24;}.cls-1,.cls-2,.cls-3,.cls-4{stroke:#000;stroke-miterlimit:10;stroke-width:5px;}.cls-2{fill:#603813;}.cls-3{fill:#42210b;}.cls-4{fill:none;}</style></defs><title>cakky</title><g id="Layer_2" data-name="Layer 2"><g id="Layer_2-2" data-name="Layer 2"><path class="cls-1" d="M74.84,569.45s-82-157-52-196,82-56,82-56Z"/><path class="cls-1" d="M98.84,393.45l213,79s-37,243-97,276c0,0-84,85-169-23-36-62,53-332,53-332"/><path class="cls-1" d="M483.84,406.45s22,58.24,36.25,124c11.66,53.95,18.07,112.95,2.75,149-44.46,104.6-157,49-157,49-86-29-35-273-35-273l76.5-24.5Z"/><path class="cls-1" d="M119.84,163.45s5-120,30-113,61,29,75,41c0,0,21-15,33-11,0,0,29-88,59-77s65,88,65,88-1,20,23,2,70-43,85-24-3,110-3,110,99,31,96,56-89,81-89,81,59,71,39,93-87,31-87,31a54.52,54.52,0,0,1-36,10A91.94,91.94,0,0,1,394,465.83c-18.3,13.86-37.55,17.5-48.12,18.62-.34,9.91-2.75,43.38-29,68-9.54,8.95-20.2,18.95-32,17-31.76-5.24-46.32-92.91-48-98,0,0-35,19-60-45,0,0-104,44-110-1s22-123,22-123-103-27-84-63S119.84,163.45,119.84,163.45Z"/><circle class="cls-1" cx="435.84" cy="268.45" r="55"/><circle class="cls-1" cx="240.84" cy="268.45" r="55"/><circle class="cls-2" cx="438.84" cy="278.45" r="20"/><circle class="cls-2" cx="240.84" cy="278.45" r="20"/><ellipse class="cls-1" cx="339.84" cy="277.95" rx="50" ry="38.5"/><circle class="cls-3" cx="320.34" cy="278.95" r="7.5"/><circle class="cls-3" cx="361.34" cy="278.95" r="7.5"/><path class="cls-1" d="M452.34,377c0,29.82-57.76,54-129,54s-129-24.18-129-54,57.75-54,129-54c44.53,0,83.79,9.45,107,23.81C444.22,355.38,452.34,365.77,452.34,377Z"/><circle class="cls-2" cx="85.84" cy="726.45" r="15"/><circle class="cls-2" cx="131.84" cy="742.45" r="15"/><circle class="cls-2" cx="185.84" cy="737.45" r="15"/><circle class="cls-2" cx="394.84" cy="711.45" r="15"/><circle class="cls-2" cx="452.84" cy="718.45" r="15"/><circle class="cls-2" cx="497.84" cy="681.45" r="15"/><path class="cls-4" d="M193.84,377.45s143,27,258,0"/><path class="cls-1" d="M314.84,31.45s15,25,8,52"/><path class="cls-1" d="M474.84,83.45s1,37-22,58"/><path class="cls-1" d="M558.84,239.45s-41,18-46,8"/><path class="cls-1" d="M512.84,393.45s-27-14-30-10"/><path class="cls-1" d="M289.84,547.45s32.15-40.77,16.07-58.89"/><path class="cls-1" d="M93,417s33.85-25.5,34.85-39.5"/><line class="cls-1" x1="36.84" y1="245.45" x2="104.84" y2="250.45"/><path class="cls-1" d="M159.84,70.45s16,30,15,53"/></g></g></svg>