<svg xmlns="http://www.w3.org/2000/svg" viewBox="0 0 752 752"><defs><style>.cls-1{fill:#1b1464;}.cls-2{fill:none;stroke:#1b1464;stroke-miterlimit:10;stroke-width:30px;}</style></defs><title>shinwalogo</title><g id="Layer_2" data-name="Layer 2"><g id="Layer_1-2" data-name="Layer 1"><path class="cls-1" d="M376,1A375.1,375.1,0,0,1,522,721.53,375.1,375.1,0,0,1,230,30.47,372.54,372.54,0,0,1,376,1m0-1C168.34,0,0,168.34,0,376S168.34,752,376,752,752,583.66,752,376,583.66,0,376,0Z"/><path class="cls-1" d="M376,30A346.1,346.1,0,0,1,510.67,694.82,346.1,346.1,0,0,1,241.33,57.18,343.72,343.72,0,0,1,376,30m0-30C168.34,0,0,168.34,0,376S168.34,752,376,752,752,583.66,752,376,583.66,0,376,0Z"/><path class="cls-1" d="M374.5,88A288.58,288.58,0,0,1,486.79,642.34,288.58,288.58,0,0,1,262.21,110.66,286.61,286.61,0,0,1,374.5,88m0-30C198.6,58,56,200.6,56,376.5S198.6,695,374.5,695,693,552.4,693,376.5,550.4,58,374.5,58Z"/><path class="cls-1" d="M374.5,138a233.79,233.79,0,0,1,77.2,13.08A237.16,237.16,0,0,1,571,243.75a233.46,233.46,0,0,1,31.5,70.61l-228.2,58.17-7.46,1.9,7.7.07,235.49,2a231.69,231.69,0,0,1-19.19,89.65,238.63,238.63,0,0,1-125.48,124.4,233,233,0,0,1-182.11-.21A238.64,238.64,0,0,1,157.63,464.8a233,233,0,0,1,0-182.6A238.64,238.64,0,0,1,283.2,156.63,231.74,231.74,0,0,1,374.5,138m0-1C244.76,137,138,243.76,138,373.5S244.76,610,374.5,610c129,0,235.38-105.5,236.49-234.46l-236.49-2,229.17-58.42C577.05,210.65,482.26,137,374.5,137Z"/><path class="cls-1" d="M373.1,136.85v1A237.74,237.74,0,0,1,502,175.9,233.15,233.15,0,0,1,609.4,372,238.74,238.74,0,0,1,543.18,536.8a233.07,233.07,0,0,1-168.1,71.66A237.87,237.87,0,0,1,247,571,233.27,233.27,0,0,1,158.7,468.35l215.8-94.28,7.06-3.08L374,372.17l-232.73,36a233.78,233.78,0,0,1,1.27-77.3,237.15,237.15,0,0,1,73.33-132,233.7,233.7,0,0,1,157.28-61v-1m0,0a233.41,233.41,0,0,0-91.81,18.78c-99.11,42.28-157.39,147.23-140.9,253.72l233.71-36.2L157.38,467.84C196,556.25,283.7,609.46,375.08,609.46a233.47,233.47,0,0,0,91.83-18.78c119.33-50.91,175.63-191,124.72-310.33-38.16-89.46-126.45-143.49-218.53-143.5Z"/><path class="cls-2" d="M603.67,315.58c-26.94-87.3-94.62-154-178.08-172.28-88.91-19.5-162,23.3-172.59,29.7-44.05,26.69-70.19,63.91-74.74,70.52a232.36,232.36,0,0,0-20.95,37.24C146.08,306.18,138.14,337.15,138,374l473,2c-1.09,16.2-11.35,139.64-112,202-36.47,22.59-72.85,29.74-98,32a244.26,244.26,0,0,1-48,2s-46.45-2.65-87.56-21.53c-45-20.69-89.95-72.85-116-144.61-4.16-11.47.54-.86-11-35.86"/></g></g></svg>